# xmcd
#
# Track frame offsets:
#	150
#	19767
#	42840
#	65631
#
# Disc length: 1129 seconds
#
# Revision: 0
# Processed by: cddbd v1.5PL3 Copyright (c) Steve Scherf et al.
# Submitted via: dBpowerAMP V4.0
#
DISCID=2e046704
DTITLE=Nathan Walker - I Want The World To Know
DYEAR=2004
DGENRE=Acoustic
TTITLE0=I Wanna Be Like You
TTITLE1=It's You
TTITLE2=Supernatural
TTITLE3=Hallelujah
EXTD=
EXTT0=
EXTT1=
EXTT2=
EXTT3=
PLAYORDER=
